<svg id="visual" viewBox="0 0 3440 1440" width="3440" height="1440" xmlns="http://www.w3.org/2000/svg" xmlns:xlink="http://www.w3.org/1999/xlink" version="1.1"><rect x="0" y="0" width="3440" height="1440" fill="#0d1117"></rect><path d="M0 536L81.8 537.2C163.7 538.3 327.3 540.7 491.2 496C655 451.3 819 359.7 982.8 351.8C1146.7 344 1310.3 420 1474.2 413.5C1638 407 1802 318 1965.8 311.5C2129.7 305 2293.3 381 2457.2 367C2621 353 2785 249 2948.8 233.3C3112.7 217.7 3276.3 290.3 3358.2 326.7L3440 363L3440 1441L3358.2 1441C3276.3 1441 3112.7 1441 2948.8 1441C2785 1441 2621 1441 2457.2 1441C2293.3 1441 2129.7 1441 1965.8 1441C1802 1441 1638 1441 1474.2 1441C1310.3 1441 1146.7 1441 982.8 1441C819 1441 655 1441 491.2 1441C327.3 1441 163.7 1441 81.8 1441L0 1441Z" fill="#f0d60d"></path><path d="M0 279L81.8 309.3C163.7 339.7 327.3 400.3 491.2 395.5C655 390.7 819 320.3 982.8 334C1146.7 347.7 1310.3 445.3 1474.2 463.3C1638 481.3 1802 419.7 1965.8 379C2129.7 338.3 2293.3 318.7 2457.2 333.5C2621 348.3 2785 397.7 2948.8 440.2C3112.7 482.7 3276.3 518.3 3358.2 536.2L3440 554L3440 1441L3358.2 1441C3276.3 1441 3112.7 1441 2948.8 1441C2785 1441 2621 1441 2457.2 1441C2293.3 1441 2129.7 1441 1965.8 1441C1802 1441 1638 1441 1474.2 1441C1310.3 1441 1146.7 1441 982.8 1441C819 1441 655 1441 491.2 1441C327.3 1441 163.7 1441 81.8 1441L0 1441Z" fill="#fac30d"></path><path d="M0 599L81.8 608C163.7 617 327.3 635 491.2 598.3C655 561.7 819 470.3 982.8 457.3C1146.7 444.3 1310.3 509.7 1474.2 534.8C1638 560 1802 545 1965.8 522.3C2129.7 499.7 2293.3 469.3 2457.2 448.2C2621 427 2785 415 2948.8 447.2C3112.7 479.3 3276.3 555.7 3358.2 593.8L3440 632L3440 1441L3358.2 1441C3276.3 1441 3112.7 1441 2948.8 1441C2785 1441 2621 1441 2457.2 1441C2293.3 1441 2129.7 1441 1965.8 1441C1802 1441 1638 1441 1474.2 1441C1310.3 1441 1146.7 1441 982.8 1441C819 1441 655 1441 491.2 1441C327.3 1441 163.7 1441 81.8 1441L0 1441Z" fill="#ffb01b"></path><path d="M0 588L81.8 579C163.7 570 327.3 552 491.2 554.8C655 557.7 819 581.3 982.8 575.7C1146.7 570 1310.3 535 1474.2 564C1638 593 1802 686 1965.8 709.2C2129.7 732.3 2293.3 685.7 2457.2 651C2621 616.3 2785 593.7 2948.8 595.3C3112.7 597 3276.3 623 3358.2 636L3440 649L3440 1441L3358.2 1441C3276.3 1441 3112.7 1441 2948.8 1441C2785 1441 2621 1441 2457.2 1441C2293.3 1441 2129.7 1441 1965.8 1441C1802 1441 1638 1441 1474.2 1441C1310.3 1441 1146.7 1441 982.8 1441C819 1441 655 1441 491.2 1441C327.3 1441 163.7 1441 81.8 1441L0 1441Z" fill="#ff9d29"></path><path d="M0 768L81.8 772.7C163.7 777.3 327.3 786.7 491.2 779.2C655 771.7 819 747.3 982.8 743.8C1146.7 740.3 1310.3 757.7 1474.2 738C1638 718.3 1802 661.7 1965.8 640.7C2129.7 619.7 2293.3 634.3 2457.2 636.8C2621 639.3 2785 629.7 2948.8 639.3C3112.7 649 3276.3 678 3358.2 692.5L3440 707L3440 1441L3358.2 1441C3276.3 1441 3112.7 1441 2948.8 1441C2785 1441 2621 1441 2457.2 1441C2293.3 1441 2129.7 1441 1965.8 1441C1802 1441 1638 1441 1474.2 1441C1310.3 1441 1146.7 1441 982.8 1441C819 1441 655 1441 491.2 1441C327.3 1441 163.7 1441 81.8 1441L0 1441Z" fill="#ff8b37"></path><path d="M0 772L81.8 766.2C163.7 760.3 327.3 748.7 491.2 728.8C655 709 819 681 982.8 714.5C1146.7 748 1310.3 843 1474.2 851.8C1638 860.7 1802 783.3 1965.8 760.8C2129.7 738.3 2293.3 770.7 2457.2 763.2C2621 755.7 2785 708.3 2948.8 727.7C3112.7 747 3276.3 833 3358.2 876L3440 919L3440 1441L3358.2 1441C3276.3 1441 3112.7 1441 2948.8 1441C2785 1441 2621 1441 2457.2 1441C2293.3 1441 2129.7 1441 1965.8 1441C1802 1441 1638 1441 1474.2 1441C1310.3 1441 1146.7 1441 982.8 1441C819 1441 655 1441 491.2 1441C327.3 1441 163.7 1441 81.8 1441L0 1441Z" fill="#ff7943"></path><path d="M0 779L81.8 812.5C163.7 846 327.3 913 491.2 929.5C655 946 819 912 982.8 895.5C1146.7 879 1310.3 880 1474.2 900.8C1638 921.7 1802 962.3 1965.8 950.5C2129.7 938.7 2293.3 874.3 2457.2 866.2C2621 858 2785 906 2948.8 919.3C3112.7 932.7 3276.3 911.3 3358.2 900.7L3440 890L3440 1441L3358.2 1441C3276.3 1441 3112.7 1441 2948.8 1441C2785 1441 2621 1441 2457.2 1441C2293.3 1441 2129.7 1441 1965.8 1441C1802 1441 1638 1441 1474.2 1441C1310.3 1441 1146.7 1441 982.8 1441C819 1441 655 1441 491.2 1441C327.3 1441 163.7 1441 81.8 1441L0 1441Z" fill="#ff684f"></path><path d="M0 915L81.8 926.2C163.7 937.3 327.3 959.7 491.2 979.3C655 999 819 1016 982.8 1002.3C1146.7 988.7 1310.3 944.3 1474.2 925.8C1638 907.3 1802 914.7 1965.8 937.7C2129.7 960.7 2293.3 999.3 2457.2 1023.3C2621 1047.3 2785 1056.7 2948.8 1035.7C3112.7 1014.7 3276.3 963.3 3358.2 937.7L3440 912L3440 1441L3358.2 1441C3276.3 1441 3112.7 1441 2948.8 1441C2785 1441 2621 1441 2457.2 1441C2293.3 1441 2129.7 1441 1965.8 1441C1802 1441 1638 1441 1474.2 1441C1310.3 1441 1146.7 1441 982.8 1441C819 1441 655 1441 491.2 1441C327.3 1441 163.7 1441 81.8 1441L0 1441Z" fill="#fc575b"></path><path d="M0 1035L81.8 1023C163.7 1011 327.3 987 491.2 1000.7C655 1014.3 819 1065.7 982.8 1072.5C1146.7 1079.3 1310.3 1041.7 1474.2 1043.2C1638 1044.7 1802 1085.3 1965.8 1101.8C2129.7 1118.3 2293.3 1110.7 2457.2 1086.3C2621 1062 2785 1021 2948.8 997.2C3112.7 973.3 3276.3 966.7 3358.2 963.3L3440 960L3440 1441L3358.2 1441C3276.3 1441 3112.7 1441 2948.8 1441C2785 1441 2621 1441 2457.2 1441C2293.3 1441 2129.7 1441 1965.8 1441C1802 1441 1638 1441 1474.2 1441C1310.3 1441 1146.7 1441 982.8 1441C819 1441 655 1441 491.2 1441C327.3 1441 163.7 1441 81.8 1441L0 1441Z" fill="#f54868"></path><path d="M0 1193L81.8 1197C163.7 1201 327.3 1209 491.2 1216.7C655 1224.3 819 1231.7 982.8 1235.3C1146.7 1239 1310.3 1239 1474.2 1233C1638 1227 1802 1215 1965.8 1201.7C2129.7 1188.3 2293.3 1173.7 2457.2 1153.2C2621 1132.7 2785 1106.3 2948.8 1113.8C3112.7 1121.3 3276.3 1162.7 3358.2 1183.3L3440 1204L3440 1441L3358.2 1441C3276.3 1441 3112.7 1441 2948.8 1441C2785 1441 2621 1441 2457.2 1441C2293.3 1441 2129.7 1441 1965.8 1441C1802 1441 1638 1441 1474.2 1441C1310.3 1441 1146.7 1441 982.8 1441C819 1441 655 1441 491.2 1441C327.3 1441 163.7 1441 81.8 1441L0 1441Z" fill="#ec3b75"></path><path d="M0 1219L81.8 1231.3C163.7 1243.7 327.3 1268.3 491.2 1266.8C655 1265.3 819 1237.7 982.8 1220.5C1146.7 1203.3 1310.3 1196.7 1474.2 1203.3C1638 1210 1802 1230 1965.8 1241.5C2129.7 1253 2293.3 1256 2457.2 1259C2621 1262 2785 1265 2948.8 1274.5C3112.7 1284 3276.3 1300 3358.2 1308L3440 1316L3440 1441L3358.2 1441C3276.3 1441 3112.7 1441 2948.8 1441C2785 1441 2621 1441 2457.2 1441C2293.3 1441 2129.7 1441 1965.8 1441C1802 1441 1638 1441 1474.2 1441C1310.3 1441 1146.7 1441 982.8 1441C819 1441 655 1441 491.2 1441C327.3 1441 163.7 1441 81.8 1441L0 1441Z" fill="#df3282"></path><path d="M0 1268L81.8 1283.7C163.7 1299.3 327.3 1330.7 491.2 1339.5C655 1348.3 819 1334.7 982.8 1326.5C1146.7 1318.3 1310.3 1315.7 1474.2 1314.3C1638 1313 1802 1313 1965.8 1311C2129.7 1309 2293.3 1305 2457.2 1306.2C2621 1307.3 2785 1313.7 2948.8 1322.3C3112.7 1331 3276.3 1342 3358.2 1347.5L3440 1353L3440 1441L3358.2 1441C3276.3 1441 3112.7 1441 2948.8 1441C2785 1441 2621 1441 2457.2 1441C2293.3 1441 2129.7 1441 1965.8 1441C1802 1441 1638 1441 1474.2 1441C1310.3 1441 1146.7 1441 982.8 1441C819 1441 655 1441 491.2 1441C327.3 1441 163.7 1441 81.8 1441L0 1441Z" fill="#cf2e8f"></path></svg>