<?xml version="1.0" encoding="UTF-8" standalone="no"?>
<!-- Created with Inkscape (http://www.inkscape.org/) -->

<svg
   width="3440mm"
   height="1440mm"
   viewBox="0 0 3440 1440"
   version="1.1"
   id="svg1"
   xml:space="preserve"
   inkscape:version="1.4 (e7c3feb100, 2024-10-09)"
   sodipodi:docname="pills_gnome_reverse.svg"
   xmlns:inkscape="http://www.inkscape.org/namespaces/inkscape"
   xmlns:sodipodi="http://sodipodi.sourceforge.net/DTD/sodipodi-0.dtd"
   xmlns="http://www.w3.org/2000/svg"
   xmlns:svg="http://www.w3.org/2000/svg"><sodipodi:namedview
     id="namedview1"
     pagecolor="#ffffff"
     bordercolor="#000000"
     borderopacity="0.25"
     inkscape:showpageshadow="2"
     inkscape:pageopacity="0.0"
     inkscape:pagecheckerboard="0"
     inkscape:deskcolor="#d1d1d1"
     inkscape:document-units="mm"
     inkscape:zoom="0.045748534"
     inkscape:cx="7519.3666"
     inkscape:cy="7016.6183"
     inkscape:window-width="2054"
     inkscape:window-height="1238"
     inkscape:window-x="0"
     inkscape:window-y="0"
     inkscape:window-maximized="0"
     inkscape:current-layer="layer1" /><defs
     id="defs1" /><g
     inkscape:label="Layer 1"
     inkscape:groupmode="layer"
     id="layer1"><rect
       style="opacity:1;fill:#241f31;fill-opacity:1;stroke-width:1.52929;stroke-linecap:round"
       id="rect17"
       width="3440"
       height="1440"
       x="0"
       y="0"
       rx="2.6749284" /><path
       id="path17"
       style="fill:#f5c211;fill-opacity:1;stroke-width:1.52929;stroke-linecap:round"
       d="m 2838.6185,80 a 205.49742,205.49742 0 0 0 -205.3657,203.6568 c -0.038,0.22161 -0.1318,0.42282 -0.1318,0.65578 v 871.38872 c 0,0.3662 0.1143,0.6951 0.2072,1.031 a 205.49742,205.49742 0 0 0 -0.2072,2.8959 205.49742,205.49742 0 0 0 205.497,205.4975 205.49742,205.49742 0 0 0 205.4975,-205.4975 205.49742,205.49742 0 0 0 -0.086,-3.499 c 0.017,-0.1474 0.086,-0.2759 0.086,-0.4279 V 285.50475 a 205.49742,205.49742 0 0 0 5e-4,-0.007 205.49742,205.49742 0 0 0 -5e-4,-0.0212 v -1.16375 c 0,-0.0576 -0.03,-0.10525 -0.033,-0.16227 A 205.49742,205.49742 0 0 0 2838.6185,80 Z" /><path
       id="path16"
       style="fill:#f79c25;fill-opacity:1;stroke-width:1.52929;stroke-linecap:round"
       d="m 2639.0902,80 a 205.49742,205.49742 0 0 0 -205.3657,203.65681 c -0.038,0.22161 -0.1318,0.42282 -0.1318,0.65578 v 871.38871 c 0,0.3662 0.1143,0.6951 0.2072,1.031 a 205.49742,205.49742 0 0 0 -0.2072,2.8959 205.49742,205.49742 0 0 0 205.497,205.4975 205.49742,205.49742 0 0 0 205.4975,-205.4975 205.49742,205.49742 0 0 0 -0.086,-3.499 c 0.017,-0.1474 0.086,-0.2759 0.086,-0.4279 V 285.50476 a 205.49742,205.49742 0 0 0 5e-4,-0.007 205.49742,205.49742 0 0 0 -5e-4,-0.0212 v -1.16375 c 0,-0.0576 -0.03,-0.10525 -0.033,-0.16227 A 205.49742,205.49742 0 0 0 2639.0902,80 Z" /><path
       id="path15"
       style="fill:#ff7800;fill-opacity:1;stroke-width:1.52929;stroke-linecap:round"
       d="m 2436.6702,80 a 205.49742,205.49742 0 0 0 -205.3657,203.65681 c -0.038,0.22161 -0.1318,0.42282 -0.1318,0.65578 v 871.38871 c 0,0.3662 0.1143,0.6951 0.2072,1.031 a 205.49742,205.49742 0 0 0 -0.2072,2.8959 205.49742,205.49742 0 0 0 205.497,205.4975 205.49742,205.49742 0 0 0 205.4975,-205.4975 205.49742,205.49742 0 0 0 -0.086,-3.499 c 0.017,-0.1474 0.086,-0.2759 0.086,-0.4279 V 285.50476 a 205.49742,205.49742 0 0 0 5e-4,-0.007 205.49742,205.49742 0 0 0 -5e-4,-0.0212 v -1.16375 c 0,-0.0576 -0.03,-0.10525 -0.033,-0.16227 A 205.49742,205.49742 0 0 0 2436.6702,80 Z" /><path
       id="path14"
       style="fill:#e66100;fill-opacity:1;stroke-width:1.52929;stroke-linecap:round"
       d="m 2231.3586,80 a 205.49742,205.49742 0 0 0 -205.3658,203.65681 c -0.038,0.22161 -0.1318,0.42282 -0.1318,0.65578 v 871.38871 c 0,0.3662 0.1143,0.6951 0.2072,1.031 a 205.49742,205.49742 0 0 0 -0.2072,2.8959 205.49742,205.49742 0 0 0 205.4971,205.4975 205.49742,205.49742 0 0 0 205.4975,-205.4975 205.49742,205.49742 0 0 0 -0.086,-3.499 c 0.017,-0.1474 0.086,-0.2759 0.086,-0.4279 V 285.50476 a 205.49742,205.49742 0 0 0 5e-4,-0.007 205.49742,205.49742 0 0 0 -5e-4,-0.0212 v -1.16375 c 0,-0.0576 -0.03,-0.10525 -0.033,-0.16227 A 205.49742,205.49742 0 0 0 2231.3586,80 Z" /><path
       id="path13"
       style="fill:#ed333b;fill-opacity:1;stroke-width:1.52929;stroke-linecap:round"
       d="m 2034.722,80 a 205.49742,205.49742 0 0 0 -205.3658,203.65682 c -0.039,0.22161 -0.1317,0.42282 -0.1317,0.65578 v 871.3887 c 0,0.3662 0.1143,0.6951 0.2072,1.031 a 205.49742,205.49742 0 0 0 -0.2072,2.8959 205.49742,205.49742 0 0 0 205.497,205.4975 205.49742,205.49742 0 0 0 205.4976,-205.4975 205.49742,205.49742 0 0 0 -0.086,-3.499 c 0.017,-0.1474 0.086,-0.2759 0.086,-0.4279 V 285.50477 a 205.49742,205.49742 0 0 0 5e-4,-0.007 205.49742,205.49742 0 0 0 -5e-4,-0.0212 v -1.16375 c 0,-0.0576 -0.03,-0.10525 -0.033,-0.16227 A 205.49742,205.49742 0 0 0 2034.722,80 Z" /><path
       id="path12"
       style="fill:#c061cb;fill-opacity:1;stroke-width:1.52929;stroke-linecap:round"
       d="m 1829.4103,80 a 205.49742,205.49742 0 0 0 -205.3657,203.65682 c -0.039,0.22161 -0.1318,0.42282 -0.1318,0.65578 v 871.3887 c 0,0.3662 0.1143,0.6951 0.2072,1.031 a 205.49742,205.49742 0 0 0 -0.2072,2.8959 205.49742,205.49742 0 0 0 205.497,205.4975 205.49742,205.49742 0 0 0 205.4975,-205.4975 205.49742,205.49742 0 0 0 -0.086,-3.499 c 0.017,-0.1474 0.086,-0.2759 0.086,-0.4279 V 285.50477 a 205.49742,205.49742 0 0 0 6e-4,-0.007 205.49742,205.49742 0 0 0 -6e-4,-0.0212 v -1.16375 c 0,-0.0576 -0.03,-0.10525 -0.033,-0.16227 A 205.49742,205.49742 0 0 0 1829.4103,80 Z" /><path
       id="path6"
       style="fill:#813d9c;fill-opacity:1;stroke-width:1.52929;stroke-linecap:round"
       d="m 1603.5892,80 a 205.49742,205.49742 0 0 0 -205.3657,203.6568 c -0.038,0.22161 -0.1318,0.42282 -0.1318,0.65578 v 871.38872 c 0,0.3662 0.1143,0.6951 0.2072,1.031 a 205.49742,205.49742 0 0 0 -0.2072,2.8959 205.49742,205.49742 0 0 0 205.497,205.4975 205.49742,205.49742 0 0 0 205.4975,-205.4975 205.49742,205.49742 0 0 0 -0.086,-3.499 c 0.017,-0.1474 0.086,-0.2759 0.086,-0.4279 V 285.50475 a 205.49742,205.49742 0 0 0 5e-4,-0.007 205.49742,205.49742 0 0 0 -5e-4,-0.0212 v -1.16375 c 0,-0.0576 -0.03,-0.10525 -0.033,-0.16227 A 205.49742,205.49742 0 0 0 1603.5892,80 Z" /><path
       id="path5"
       style="fill:#613583;fill-opacity:1;stroke-width:1.52929;stroke-linecap:round"
       d="m 1404.0609,80 a 205.49742,205.49742 0 0 0 -205.3657,203.65681 c -0.038,0.22161 -0.1318,0.42282 -0.1318,0.65578 v 871.38871 c 0,0.3662 0.1143,0.6951 0.2072,1.031 a 205.49742,205.49742 0 0 0 -0.2072,2.8959 205.49742,205.49742 0 0 0 205.497,205.4975 205.49742,205.49742 0 0 0 205.4975,-205.4975 205.49742,205.49742 0 0 0 -0.086,-3.499 c 0.017,-0.1474 0.086,-0.2759 0.086,-0.4279 V 285.50476 a 205.49742,205.49742 0 0 0 5e-4,-0.007 205.49742,205.49742 0 0 0 -5e-4,-0.0212 v -1.16375 c 0,-0.0576 -0.03,-0.10525 -0.033,-0.16227 A 205.49742,205.49742 0 0 0 1404.0609,80 Z" /><path
       id="path4"
       style="fill:#3584e4;fill-opacity:1;stroke-width:1.52929;stroke-linecap:round"
       d="M 1201.6409,80 A 205.49742,205.49742 0 0 0 996.27519,283.65681 c -0.038,0.22161 -0.1318,0.42282 -0.1318,0.65578 v 871.38871 c 0,0.3662 0.1143,0.6951 0.2072,1.031 a 205.49742,205.49742 0 0 0 -0.2072,2.8959 205.49742,205.49742 0 0 0 205.49701,205.4975 205.49742,205.49742 0 0 0 205.4975,-205.4975 205.49742,205.49742 0 0 0 -0.086,-3.499 c 0.017,-0.1474 0.086,-0.2759 0.086,-0.4279 V 285.50476 a 205.49742,205.49742 0 0 0 5e-4,-0.007 205.49742,205.49742 0 0 0 -5e-4,-0.0212 v -1.16375 c 0,-0.0576 -0.03,-0.10525 -0.033,-0.16227 A 205.49742,205.49742 0 0 0 1201.6409,80 Z" /><path
       id="path3"
       style="fill:#26a269;fill-opacity:1;stroke-width:1.52929;stroke-linecap:round"
       d="M 996.32929,80 A 205.49742,205.49742 0 0 0 790.96351,283.65681 c -0.0385,0.22161 -0.13177,0.42282 -0.13177,0.65578 v 871.38871 c 0,0.3662 0.11429,0.6951 0.20722,1.031 a 205.49742,205.49742 0 0 0 -0.20722,2.8959 205.49742,205.49742 0 0 0 205.49705,205.4975 205.49742,205.49742 0 0 0 205.49751,-205.4975 205.49742,205.49742 0 0 0 -0.086,-3.499 c 0.017,-0.1474 0.086,-0.2759 0.086,-0.4279 V 285.50476 a 205.49742,205.49742 0 0 0 5e-4,-0.007 205.49742,205.49742 0 0 0 -5e-4,-0.0212 v -1.16375 c 0,-0.0576 -0.03,-0.10525 -0.033,-0.16227 A 205.49742,205.49742 0 0 0 996.32929,80 Z" /><path
       id="path2"
       style="fill:#2ec27e;fill-opacity:1;stroke-width:1.52929;stroke-linecap:round"
       d="M 799.69273,80 A 205.49742,205.49742 0 0 0 594.32697,283.65682 c -0.0385,0.22161 -0.13177,0.42282 -0.13177,0.65578 v 871.3887 c 0,0.3662 0.11429,0.6951 0.20722,1.031 a 205.49742,205.49742 0 0 0 -0.20722,2.8959 205.49742,205.49742 0 0 0 205.49702,205.4975 205.49742,205.49742 0 0 0 205.49758,-205.4975 205.49742,205.49742 0 0 0 -0.086,-3.499 c 0.017,-0.1474 0.086,-0.2759 0.086,-0.4279 V 285.50477 a 205.49742,205.49742 0 0 0 5e-4,-0.007 205.49742,205.49742 0 0 0 -5e-4,-0.0212 v -1.16375 c 0,-0.0576 -0.03,-0.10525 -0.033,-0.16227 A 205.49742,205.49742 0 0 0 799.69273,80 Z" /><path
       id="path1"
       style="fill:#33d17a;fill-opacity:1;stroke-width:1.52929;stroke-linecap:round"
       d="M 594.38105,80 A 205.49742,205.49742 0 0 0 389.01529,283.65682 c -0.0385,0.22161 -0.13177,0.42282 -0.13177,0.65578 v 871.3887 c 0,0.3662 0.11429,0.6951 0.20722,1.031 a 205.49742,205.49742 0 0 0 -0.20722,2.8959 205.49742,205.49742 0 0 0 205.49702,205.4975 205.49742,205.49742 0 0 0 205.49753,-205.4975 205.49742,205.49742 0 0 0 -0.0858,-3.499 c 0.0166,-0.1474 0.0858,-0.2759 0.0858,-0.4279 V 285.50477 a 205.49742,205.49742 0 0 0 5.2e-4,-0.007 205.49742,205.49742 0 0 0 -5.2e-4,-0.0212 v -1.16375 c 0,-0.0576 -0.0301,-0.10525 -0.0326,-0.16227 A 205.49742,205.49742 0 0 0 594.38105,80 Z" /></g></svg>
