<svg id="visual" viewBox="0 0 3440 1440" width="3440" height="1440" xmlns="http://www.w3.org/2000/svg" xmlns:xlink="http://www.w3.org/1999/xlink" version="1.1"><rect x="0" y="0" width="3440" height="1440" fill="#0D1118"></rect><path d="M904 0L904 34.3C904 68.7 904 137.3 904 205.8C904 274.3 904 342.7 904 411.2C904 479.7 904 548.3 904 617C904 685.7 904 754.3 904 823C904 891.7 904 960.3 904 1028.8C904 1097.3 904 1165.7 904 1234.2C904 1302.7 904 1371.3 904 1405.7L904 1440L0 1440L0 1405.7C0 1371.3 0 1302.7 0 1234.2C0 1165.7 0 1097.3 0 1028.8C0 960.3 0 891.7 0 823C0 754.3 0 685.7 0 617C0 548.3 0 479.7 0 411.2C0 342.7 0 274.3 0 205.8C0 137.3 0 68.7 0 34.3L0 0Z" fill="#f0d70f"></path><path d="M775 0L775 34.3C775 68.7 775 137.3 775 205.8C775 274.3 775 342.7 775 411.2C775 479.7 775 548.3 775 617C775 685.7 775 754.3 775 823C775 891.7 775 960.3 775 1028.8C775 1097.3 775 1165.7 775 1234.2C775 1302.7 775 1371.3 775 1405.7L775 1440L0 1440L0 1405.7C0 1371.3 0 1302.7 0 1234.2C0 1165.7 0 1097.3 0 1028.8C0 960.3 0 891.7 0 823C0 754.3 0 685.7 0 617C0 548.3 0 479.7 0 411.2C0 342.7 0 274.3 0 205.8C0 137.3 0 68.7 0 34.3L0 0Z" fill="#ffb419"></path><path d="M646 0L646 34.3C646 68.7 646 137.3 646 205.8C646 274.3 646 342.7 646 411.2C646 479.7 646 548.3 646 617C646 685.7 646 754.3 646 823C646 891.7 646 960.3 646 1028.8C646 1097.3 646 1165.7 646 1234.2C646 1302.7 646 1371.3 646 1405.7L646 1440L0 1440L0 1405.7C0 1371.3 0 1302.7 0 1234.2C0 1165.7 0 1097.3 0 1028.8C0 960.3 0 891.7 0 823C0 754.3 0 685.7 0 617C0 548.3 0 479.7 0 411.2C0 342.7 0 274.3 0 205.8C0 137.3 0 68.7 0 34.3L0 0Z" fill="#ff9133"></path><path d="M517 0L517 34.3C517 68.7 517 137.3 517 205.8C517 274.3 517 342.7 517 411.2C517 479.7 517 548.3 517 617C517 685.7 517 754.3 517 823C517 891.7 517 960.3 517 1028.8C517 1097.3 517 1165.7 517 1234.2C517 1302.7 517 1371.3 517 1405.7L517 1440L0 1440L0 1405.7C0 1371.3 0 1302.7 0 1234.2C0 1165.7 0 1097.3 0 1028.8C0 960.3 0 891.7 0 823C0 754.3 0 685.7 0 617C0 548.3 0 479.7 0 411.2C0 342.7 0 274.3 0 205.8C0 137.3 0 68.7 0 34.3L0 0Z" fill="#ff704a"></path><path d="M388 0L388 34.3C388 68.7 388 137.3 388 205.8C388 274.3 388 342.7 388 411.2C388 479.7 388 548.3 388 617C388 685.7 388 754.3 388 823C388 891.7 388 960.3 388 1028.8C388 1097.3 388 1165.7 388 1234.2C388 1302.7 388 1371.3 388 1405.7L388 1440L0 1440L0 1405.7C0 1371.3 0 1302.7 0 1234.2C0 1165.7 0 1097.3 0 1028.8C0 960.3 0 891.7 0 823C0 754.3 0 685.7 0 617C0 548.3 0 479.7 0 411.2C0 342.7 0 274.3 0 205.8C0 137.3 0 68.7 0 34.3L0 0Z" fill="#fa5261"></path><path d="M259 0L259 34.3C259 68.7 259 137.3 259 205.8C259 274.3 259 342.7 259 411.2C259 479.7 259 548.3 259 617C259 685.7 259 754.3 259 823C259 891.7 259 960.3 259 1028.8C259 1097.3 259 1165.7 259 1234.2C259 1302.7 259 1371.3 259 1405.7L259 1440L0 1440L0 1405.7C0 1371.3 0 1302.7 0 1234.2C0 1165.7 0 1097.3 0 1028.8C0 960.3 0 891.7 0 823C0 754.3 0 685.7 0 617C0 548.3 0 479.7 0 411.2C0 342.7 0 274.3 0 205.8C0 137.3 0 68.7 0 34.3L0 0Z" fill="#eb3a78"></path><path d="M130 0L130 34.3C130 68.7 130 137.3 130 205.8C130 274.3 130 342.7 130 411.2C130 479.7 130 548.3 130 617C130 685.7 130 754.3 130 823C130 891.7 130 960.3 130 1028.8C130 1097.3 130 1165.7 130 1234.2C130 1302.7 130 1371.3 130 1405.7L130 1440L0 1440L0 1405.7C0 1371.3 0 1302.7 0 1234.2C0 1165.7 0 1097.3 0 1028.8C0 960.3 0 891.7 0 823C0 754.3 0 685.7 0 617C0 548.3 0 479.7 0 411.2C0 342.7 0 274.3 0 205.8C0 137.3 0 68.7 0 34.3L0 0Z" fill="#d02f90"></path></svg>