#define bullet_width 6
#define bullet_height 9
static unsigned char bullet_bits[] = {
   0x03, 0x07, 0x0f, 0x1f, 0x3f, 0x1f, 0x0f, 0x07, 0x03 };
