<?xml version="1.0" encoding="UTF-8" standalone="no"?>
<!-- Created with Inkscape (http://www.inkscape.org/) -->

<svg
   width="26"
   height="26"
   viewBox="0 0 6.8791667 6.8791667"
   version="1.1"
   id="svg1"
   xml:space="preserve"
   inkscape:version="1.3.2 (091e20ef0f, 2023-11-25)"
   sodipodi:docname="close-inactive.svg"
   xmlns:inkscape="http://www.inkscape.org/namespaces/inkscape"
   xmlns:sodipodi="http://sodipodi.sourceforge.net/DTD/sodipodi-0.dtd"
   xmlns="http://www.w3.org/2000/svg"
   xmlns:svg="http://www.w3.org/2000/svg"><sodipodi:namedview
     id="namedview1"
     pagecolor="#ffffff"
     bordercolor="#000000"
     borderopacity="0.25"
     inkscape:showpageshadow="2"
     inkscape:pageopacity="0.0"
     inkscape:pagecheckerboard="0"
     inkscape:deskcolor="#d1d1d1"
     inkscape:document-units="mm"
     inkscape:zoom="1.4979692"
     inkscape:cx="180.24402"
     inkscape:cy="68.425972"
     inkscape:window-width="1416"
     inkscape:window-height="1220"
     inkscape:window-x="35"
     inkscape:window-y="32"
     inkscape:window-maximized="0"
     inkscape:current-layer="layer1"
     showgrid="true"><inkscape:grid
       id="grid1"
       units="px"
       originx="0"
       originy="0"
       spacingx="0.26458334"
       spacingy="0.26458334"
       empcolor="#0099e5"
       empopacity="0.30196078"
       color="#0099e5"
       opacity="0.14901961"
       empspacing="5"
       dotted="false"
       gridanglex="30"
       gridanglez="30"
       visible="true" /></sodipodi:namedview><defs
     id="defs1" /><g
     inkscape:label="Layer 1"
     inkscape:groupmode="layer"
     id="layer1"><circle
       style="fill:#242424;fill-opacity:1;stroke:none;stroke-width:0.529165;stroke-linecap:square;stroke-dasharray:none;stroke-opacity:1"
       id="circle2"
       cx="3.4395833"
       cy="3.4395833"
       r="3.4395833" /><circle
       style="fill:#2f2f2f;fill-opacity:1;stroke:none;stroke-width:0.529167;stroke-linecap:square;stroke-dasharray:none;stroke-opacity:1"
       id="circle1"
       cx="3.4395833"
       cy="3.4395833"
       r="2.9104166" /><path
       id="path857"
       style="color:#000000;fill:#8e8e8e;stroke-width:0.264583;stroke-linecap:round;stroke-linejoin:round;-inkscape-stroke:none;fill-opacity:1"
       d="m 2.532421,2.38125 a 0.15119371,0.15119208 0 0 0 -0.1068987,0.044295 0.15119371,0.15119208 0 0 0 0,0.213795 L 3.2257859,3.439595 2.4255223,4.2398499 a 0.15119371,0.15119208 0 0 0 0,0.2137953 0.15119371,0.15119208 0 0 0 0.2137974,0 L 3.4395833,3.6533896 4.2398469,4.4536448 a 0.15119371,0.15119208 0 0 0 0.2137976,0 0.15119371,0.15119208 0 0 0 0,-0.2137953 L 3.6533806,3.4395946 4.4536445,2.6393396 a 0.15119371,0.15119208 0 0 0 0,-0.213795 0.15119371,0.15119208 0 0 0 -0.2137976,0 L 3.4395833,3.2257995 2.6393197,2.4255446 A 0.15119371,0.15119208 0 0 0 2.532421,2.38125 Z" /></g></svg>
