#define max_toggled_width 11
#define max_toggled_height 11
static unsigned char max_toggled_bits[] = {
   0x00, 0x00, 0x00, 0x00, 0xf0, 0x03, 0xf0, 0x03, 0x1e, 0x02, 0x1e, 0x02,
   0x12, 0x02, 0xf2, 0x03, 0x42, 0x00, 0x7e, 0x00, 0x00, 0x00 };
