#define max_toggled_width 10
#define max_toggled_height 10
static unsigned char max_toggled_bits[] = {
   0x00, 0x00, 0xf8, 0x01, 0xf8, 0x01, 0x0e, 0x01, 0x0e, 0x01, 0x0a, 0x01,
   0xfa, 0x01, 0x42, 0x00, 0x7e, 0x00, 0x00, 0x00 };
